/* XPM */
static const char* LuaExclamation[] = {
  /* columns rows colors chars-per-pixel */
  "16 16 130 2 ",
  "   c #2E2E5F",
  ".  c #3D3D57",
  "X  c #15156E",
  "o  c #1E126D",
  "O  c #18166D",
  "+  c #1F1F69",
  "@  c #18186D",
  "#  c #060677",
  "$  c #0E0E73",
  "%  c #0B0B76",
  "&  c #0C0B74",
  "*  c #0F0F77",
  "=  c #030379",
  "-  c #01017A",
  ";  c #02027A",
  ":  c #03037A",
  ">  c #03037B",
  ",  c #040379",
  "<  c #00007C",
  "1  c #01017C",
  "2  c #00007D",
  "3  c #01017D",
  "4  c #02027D",
  "5  c #01017E",
  "6  c #01017F",
  "7  c #03037F",
  "8  c #04047E",
  "9  c #05057E",
  "0  c #0C0C78",
  "q  c #121171",
  "w  c #101072",
  "e  c #151570",
  "r  c #1A1070",
  "t  c #2E1C67",
  "y  c #232366",
  "u  c #3B2260",
  "i  c #3F2762",
  "p  c #232173",
  "a  c #3A387E",
  "s  c #6E324B",
  "d  c #6F384C",
  "f  c #7E3944",
  "g  c #632D50",
  "h  c #622F53",
  "j  c #693C52",
  "k  c #432B64",
  "l  c #413165",
  "z  c #48484F",
  "x  c #49494F",
  "c  c #7C414D",
  "v  c #7A494D",
  "b  c #704D54",
  "n  c #634A74",
  "m  c gray40",
  "M  c #8F3F3F",
  "N  c #BD3736",
  "B  c #DE1212",
  "V  c #DE1516",
  "C  c #D11E1D",
  "Z  c #FF0203",
  "A  c #FF0607",
  "S  c #F60C0F",
  "D  c #F20D10",
  "F  c #F61010",
  "G  c #D61F27",
  "H  c #DD3238",
  "J  c #FF2025",
  "K  c #FF2227",
  "L  c #FF2129",
  "P  c #F12D2F",
  "I  c #FF2D31",
  "U  c #FF2E36",
  "Y  c #FF3039",
  "T  c #FF343F",
  "R  c #8A324C",
  "E  c #AA3743",
  "W  c #CD3E42",
  "Q  c #C33F51",
  "!  c #FF3B43",
  "~  c #FF3D45",
  "^  c #FF3C47",
  "/  c #FF3D48",
  "(  c #AD525D",
  ")  c #BF5A5D",
  "_  c #8C5A63",
  "`  c #9C566A",
  "'  c #8A6B6D",
  "]  c #B3696A",
  "[  c #A16F70",
  "{  c #AB7573",
  "}  c #CE4148",
  "|  c #E9434E",
  " . c #EF434D",
  ".. c #E54F54",
  "X. c #FF4E58",
  "o. c #E55E5E",
  "O. c #FF5056",
  "+. c #FF545D",
  "@. c #CA6466",
  "#. c #D87B7D",
  "$. c #EC696F",
  "%. c #FF6A6D",
  "&. c #FF6B72",
  "*. c #ED7F7E",
  "=. c #FF7379",
  "-. c #020281",
  ";. c #101083",
  ":. c #111185",
  ">. c #121284",
  ",. c #33338A",
  "<. c #2F2F94",
  "1. c #313194",
  "2. c #303095",
  "3. c #313195",
  "4. c #4E4EA0",
  "5. c #5050A5",
  "6. c #5454A5",
  "7. c #8E7992",
  "8. c #9494BB",
  "9. c #EA8488",
  "0. c #FF898A",
  "q. c #9A9AC7",
  "w. c #9F9FCD",
  "e. c #A0A0CE",
  "r. c #A1A1CE",
  "t. c #A2A2CE",
  "y. c #DDDDE4",
  "u. c #EFEFF7",
  "i. c #F0F0F7",
  "p. c None",
  /* pixels */
  "p.p.m m m p.p.p.p.p.p.p.p.1 -.-.",
  "p.' #.%..._ p.p.p.p.p.p.1 1 1 1 ",
  "[ *.0.&.! P R t 0 p.p.p.1 1 1 1 ",
  "{ 9.=.+.Y F N u % 1 1 p.p.1 1 p.",
  "] $.X.^ U S N k ,.2.:.1 p.p.p.p.",
  ")  .^ ! L S N n 8.e.5.:.1 p.p.p.",
  "( | ~ J A D E 7.y.u.t.2.1 p.p.p.",
  "@ j W J V f a q.u.u.t.3.1 -.p.p.",
  "@ d C Z B f p 4.e.t.6.:.1 1 p.p.",
  ": O g R s o = ;.<.2.:.1 1 1 p.p.",
  "= = $ O $ , 1 1 1 1 1 1 1 1 p.p.",
  "p.> +   y # 1 1 1 1 1 1 1 p.p.p.",
  "p.l ` o.Q k & = 1 1 1 1 1 p.p.p.",
  "p.b @.O.H c O = 1 1 1 1 p.p.p.p.",
  "p.v } I G h q > 1 1 1 p.p.p.p.p.",
  "p.p.x x . * 1 1 9 -.p.p.p.p.p.p."
};

static const char * breakpoint_condition_xpm[] = {
  "16 16 23 1",
  " 	c None",
  ".	c #772B1A",
  "+	c #903B2D",
  "@	c #FFAA00",
  "#	c #C65C55",
  "$	c #C65750",
  "%	c #8F3A2C",
  "&	c #C5524B",
  "*	c #8E392C",
  "=	c #C04C45",
  "-	c #8B382A",
  ";	c #B8453E",
  ">	c #8D392B",
  ",	c #B8443D",
  "'	c #8A3729",
  ")	c #B34B38",
  "!	c #863326",
  "~	c #A33C36",
  "{	c #813023",
  "]	c #A7592E",
  "^	c #7B2D1F",
  "/	c #822F28",
  "(	c #772B1D",
  "       .        ",
  "      ...       ",
  "     ..+..      ",
  "    ..+@#..     ",
  "   ..+@@@$..    ",
  "  ..%@@@@@&..   ",
  " ..*@@@@@@@=..  ",
  "..-@@@@@@@@@;.. ",
  "..>@@@@@@@@@,.. ",
  " ..'@@@@@@@)..  ",
  "  ..!@@@@@~..   ",
  "   ..{@@@]..    ",
  "    ..^@/..     ",
  "     ..(..      ",
  "      ...       ",
  "       .        " };

/* XPM */
const static char* LuaExclamation2[] = {
  /* columns rows colors chars-per-pixel */
  "16 16 13 1 ",
  "  c #00007B",
  ". c #050578",
  "X c #00007C",
  "o c #12127C",
  "O c #FF0000",
  "+ c navy",
  "@ c #020282",
  "# c #050582",
  "$ c #080880",
  "% c #0A0A80",
  "& c #0D0D81",
  "* c white",
  "= c None",
  /* pixels */
  "==OOO========X@=",
  "=OOOOO======XXX@",
  "=OOOOOXX$===XXXX",
  "=OOOOOXXXXX==XX=",
  "=OOOOOXXXXXX====",
  "=OOOOOX.**XXX===",
  "=XOOOXX****XX===",
  "XXOOOXX****XX#==",
  "+XOOOXXX**oXXX==",
  "+XXOXXXX XXXXX==",
  "XXXXXXXXXXXXXX==",
  "=XXOXXXXXXXXX===",
  "=XOOOXXXXXXXX===",
  "=OOOOOXXXXXX====",
  "==OOOXXXXXX=====",
  "===O=&XX%======="
};
